<?xml version="1.0" standalone="no"?>
<!DOCTYPE svg PUBLIC "-//W3C//DTD SVG 20010904//EN"
 "http://www.w3.org/TR/2001/REC-SVG-20010904/DTD/svg10.dtd">
<svg version="1.0" xmlns="http://www.w3.org/2000/svg"
 width="2266.000000pt" height="2266.000000pt" viewBox="0 0 2266.000000 2266.000000"
 preserveAspectRatio="xMidYMid meet">

<g transform="translate(0.000000,2266.000000) scale(0.100000,-0.100000)"
fill="#000000" stroke="none">
<path d="M9305 19548 c-10 -29 -26 -71 -36 -93 -9 -22 -23 -58 -30 -80 -7 -22
-16 -44 -20 -50 -3 -5 -12 -31 -20 -57 -7 -27 -17 -48 -21 -48 -4 0 -8 -10 -8
-23 0 -13 -4 -27 -8 -32 -5 -6 -15 -30 -22 -55 -8 -25 -17 -50 -21 -55 -4 -6
-20 -46 -35 -90 -15 -44 -31 -81 -36 -83 -4 -2 -8 -12 -8 -23 0 -11 -4 -28
-10 -39 -5 -11 -14 -29 -20 -40 -5 -11 -10 -29 -10 -39 0 -11 -4 -23 -10 -26
-5 -3 -10 -17 -10 -30 0 -13 -4 -27 -10 -30 -5 -3 -10 -15 -10 -26 0 -10 -4
-19 -10 -19 -5 0 -10 -11 -10 -24 0 -14 -4 -28 -10 -31 -5 -3 -10 -17 -10 -30
0 -13 -4 -26 -9 -29 -4 -3 -21 -40 -36 -83 -15 -43 -31 -82 -36 -88 -5 -5 -9
-17 -9 -27 0 -10 -4 -26 -9 -36 -5 -9 -14 -30 -21 -47 -7 -16 -16 -38 -21 -47
-5 -10 -9 -27 -9 -38 0 -11 -4 -20 -10 -20 -5 0 -10 -11 -10 -24 0 -14 -4 -28
-10 -31 -5 -3 -10 -17 -10 -31 0 -13 -4 -24 -10 -24 -5 0 -10 -9 -10 -20 0
-11 -4 -28 -9 -38 -6 -9 -22 -48 -36 -87 -25 -68 -31 -83 -53 -135 -5 -14 -15
-41 -22 -60 -7 -19 -16 -44 -20 -55 -4 -11 -13 -36 -20 -55 -15 -42 -29 -79
-41 -102 -5 -10 -9 -27 -9 -37 0 -11 -4 -23 -10 -26 -5 -3 -10 -17 -10 -31 0
-13 -4 -24 -9 -24 -5 0 -12 -12 -16 -27 -3 -15 -15 -45 -26 -67 -10 -22 -19
-46 -19 -53 0 -13 -5 -24 -28 -70 -7 -13 -12 -30 -12 -38 0 -8 -4 -24 -10 -35
-5 -11 -14 -29 -20 -40 -5 -11 -10 -27 -10 -35 0 -8 -4 -23 -9 -33 -5 -9 -14
-30 -21 -47 -7 -16 -16 -38 -21 -47 -5 -10 -9 -24 -9 -31 0 -7 -9 -32 -20 -55
-11 -22 -20 -46 -20 -51 0 -6 -11 -34 -24 -63 -13 -29 -30 -74 -37 -100 -7
-27 -17 -48 -21 -48 -4 0 -8 -9 -8 -20 0 -11 -4 -28 -9 -38 -15 -29 -29 -65
-42 -107 -7 -22 -17 -44 -21 -50 -4 -5 -8 -18 -8 -30 0 -12 -4 -25 -10 -31 -5
-5 -21 -43 -36 -84 -14 -41 -30 -79 -35 -85 -5 -5 -9 -19 -9 -32 0 -13 -4 -23
-10 -23 -5 0 -10 -11 -10 -24 0 -14 -4 -28 -10 -31 -5 -3 -10 -17 -10 -31 0
-13 -4 -24 -10 -24 -5 0 -10 -9 -10 -20 0 -11 -4 -29 -10 -40 -5 -11 -14 -29
-20 -40 -5 -11 -10 -27 -10 -35 0 -8 -4 -23 -9 -33 -19 -34 -51 -112 -51 -121
0 -10 -45 -123 -61 -153 -5 -10 -9 -27 -9 -38 0 -11 -4 -20 -10 -20 -5 0 -10
-11 -10 -24 0 -14 -4 -28 -10 -31 -5 -3 -10 -15 -10 -26 0 -10 -4 -27 -9 -37
-23 -45 -31 -97 -31 -200 0 -63 4 -113 10 -117 6 -3 10 -15 10 -26 0 -10 5
-19 10 -19 6 0 10 -7 10 -15 0 -23 46 -66 99 -92 38 -20 60 -23 153 -23 65 0
108 4 108 10 0 6 11 10 24 10 14 0 28 5 31 10 3 6 15 10 26 10 10 0 19 4 19 8
0 5 18 17 40 27 22 10 54 31 70 47 16 15 33 28 37 28 13 0 114 100 168 165 28
33 57 67 65 75 9 8 27 31 40 50 13 19 27 37 30 40 3 3 24 28 45 55 22 28 47
57 55 65 9 8 27 31 40 50 13 19 29 40 35 46 5 7 28 33 50 60 104 124 257 254
299 254 9 0 16 5 16 10 0 6 11 10 24 10 14 0 28 5 31 10 3 6 44 10 91 10 49 0
84 -4 84 -10 0 -5 9 -10 20 -10 11 0 20 -4 20 -10 0 -5 7 -10 14 -10 19 0 60
-54 82 -105 22 -54 21 -185 -2 -258 -10 -32 -21 -57 -26 -57 -4 0 -8 -9 -8
-20 0 -11 -4 -20 -10 -20 -5 0 -10 -9 -10 -20 0 -11 -4 -20 -10 -20 -5 0 -10
-7 -10 -15 0 -8 -4 -15 -10 -15 -5 0 -10 -7 -10 -15 0 -8 -4 -15 -10 -15 -5 0
-10 -4 -10 -10 0 -19 -143 -169 -243 -255 -32 -27 -64 -55 -70 -60 -7 -6 -25
-21 -42 -33 -43 -32 -82 -63 -113 -89 -15 -13 -32 -23 -39 -23 -6 0 -13 -4
-15 -8 -1 -5 -25 -24 -52 -43 -27 -19 -65 -46 -85 -61 -20 -15 -51 -34 -68
-44 -18 -9 -33 -20 -33 -25 0 -5 -6 -9 -13 -9 -7 0 -23 -9 -35 -20 -12 -11
-28 -20 -37 -20 -8 0 -15 -4 -15 -8 0 -5 -12 -15 -27 -23 -16 -8 -30 -17 -33
-20 -3 -3 -32 -23 -65 -44 -33 -21 -62 -40 -65 -44 -8 -10 -63 -42 -82 -48
-10 -3 -18 -9 -18 -14 0 -5 -7 -9 -15 -9 -8 0 -15 -4 -15 -9 0 -5 -8 -11 -17
-14 -18 -6 -74 -37 -83 -47 -16 -17 -131 -90 -152 -97 -10 -3 -18 -9 -18 -13
0 -4 -13 -13 -30 -20 -16 -7 -30 -16 -30 -21 0 -5 -5 -9 -10 -9 -12 0 -145
-86 -174 -112 -11 -10 -24 -18 -28 -18 -5 0 -18 -9 -30 -20 -12 -11 -28 -20
-35 -20 -7 0 -13 -4 -13 -10 0 -5 -7 -10 -15 -10 -8 0 -15 -4 -15 -10 0 -5 -6
-10 -13 -10 -7 0 -23 -9 -35 -20 -12 -11 -25 -20 -30 -20 -4 0 -17 -8 -28 -18
-10 -10 -34 -27 -51 -37 -18 -11 -33 -23 -33 -27 0 -4 -6 -8 -12 -8 -7 0 -29
-14 -48 -30 -19 -16 -39 -30 -43 -30 -5 0 -14 -6 -21 -12 -8 -7 -40 -31 -71
-53 -32 -22 -69 -50 -82 -62 -13 -13 -28 -23 -32 -23 -4 0 -22 -13 -39 -30
-18 -16 -35 -30 -39 -30 -5 0 -20 -10 -34 -23 -15 -12 -44 -35 -65 -52 -22
-16 -49 -40 -61 -51 -12 -12 -36 -32 -55 -45 -18 -13 -40 -31 -49 -41 -9 -10
-19 -18 -23 -18 -4 0 -22 -15 -40 -32 -18 -18 -64 -60 -102 -93 -100 -88 -305
-295 -370 -372 -85 -103 -121 -146 -144 -173 -12 -14 -29 -37 -38 -52 -9 -16
-20 -28 -24 -28 -4 0 -8 -7 -8 -15 0 -8 -4 -15 -9 -15 -5 0 -13 -9 -16 -20 -3
-11 -12 -26 -18 -32 -7 -7 -25 -33 -41 -58 -16 -25 -37 -57 -48 -72 -10 -15
-18 -32 -18 -38 0 -5 -4 -10 -10 -10 -5 0 -10 -9 -10 -19 0 -11 -4 -21 -8 -23
-4 -2 -27 -43 -51 -93 -23 -49 -51 -107 -62 -127 -11 -20 -26 -56 -34 -80 -7
-24 -27 -81 -44 -128 -17 -47 -31 -95 -31 -107 0 -12 -4 -25 -10 -28 -5 -3
-10 -24 -10 -46 0 -21 -4 -39 -10 -39 -5 0 -10 -24 -10 -54 0 -30 -4 -57 -9
-60 -32 -20 -33 -746 0 -746 5 0 9 -22 9 -49 0 -28 5 -53 10 -56 6 -3 10 -20
10 -37 0 -31 15 -87 31 -120 5 -10 9 -29 9 -42 0 -14 5 -28 10 -31 6 -3 10
-17 10 -30 0 -13 4 -26 9 -30 5 -3 17 -29 27 -58 18 -56 134 -290 146 -295 5
-2 8 -10 8 -18 0 -8 5 -14 10 -14 6 0 10 -5 10 -11 0 -11 30 -54 67 -95 12
-13 37 -45 54 -71 30 -43 152 -173 163 -173 3 0 15 -10 28 -22 53 -52 123
-108 135 -108 7 0 13 -4 13 -10 0 -5 7 -10 15 -10 8 0 15 -4 15 -9 0 -5 14
-14 30 -21 17 -7 30 -16 30 -21 0 -5 9 -9 19 -9 11 0 21 -4 23 -8 2 -5 37 -26
78 -46 41 -21 83 -42 92 -47 10 -5 27 -9 38 -9 11 0 20 -4 20 -10 0 -5 9 -10
19 -10 11 0 23 -4 26 -10 3 -5 19 -10 35 -10 16 0 32 -4 35 -10 3 -5 19 -10
35 -10 16 0 31 -4 34 -9 3 -5 25 -12 48 -15 147 -22 178 -26 223 -35 65 -13
417 -13 520 0 173 21 232 29 285 39 30 6 71 13 90 16 19 3 44 9 55 14 23 10
65 20 118 27 20 3 37 9 37 14 0 5 13 9 29 9 17 0 33 5 36 10 3 6 16 10 29 10
12 0 26 4 31 9 6 5 45 21 88 36 42 15 77 32 77 36 0 5 7 9 16 9 19 0 227 100
232 112 2 4 12 8 23 8 10 0 19 5 19 10 0 6 5 10 11 10 6 0 40 20 75 45 34 25
67 45 73 45 6 0 11 4 11 8 0 5 12 15 28 23 15 8 34 22 43 31 9 10 21 18 28 18
6 0 11 5 11 10 0 6 7 10 15 10 8 0 15 5 15 10 0 6 4 10 9 10 5 0 25 15 44 33
19 17 65 59 103 92 37 33 88 82 113 108 130 137 133 141 236 262 14 17 25 33
25 38 0 4 14 21 30 39 17 17 30 35 30 40 0 5 7 16 16 25 23 23 114 161 114
173 0 5 4 10 9 10 5 0 11 8 14 18 4 9 17 35 30 57 44 71 114 199 128 233 8 17
17 32 21 32 5 0 8 7 8 15 0 8 4 23 9 33 5 9 19 40 31 67 12 28 26 58 31 67 5
10 9 25 9 33 0 8 5 15 10 15 6 0 10 5 10 12 0 16 50 141 61 152 5 6 9 23 9 38
0 15 5 28 10 28 6 0 10 14 10 30 0 17 5 30 10 30 6 0 10 11 10 24 0 14 5 28
10 31 6 3 10 19 10 35 0 16 5 32 10 35 6 3 10 19 10 36 0 16 5 29 10 29 6 0
10 15 10 34 0 19 4 38 10 41 6 3 10 19 10 36 0 16 5 37 10 47 11 18 65 239 81
332 83 479 113 829 113 1340 1 370 -26 937 -50 1073 -4 24 -2 37 5 37 6 0 11
-11 11 -25 0 -14 5 -25 10 -25 6 0 10 -10 10 -23 0 -13 4 -27 8 -32 5 -6 15
-30 22 -55 8 -25 17 -47 20 -50 3 -3 11 -23 19 -45 15 -45 38 -101 52 -127 5
-10 9 -27 9 -38 0 -11 5 -20 10 -20 6 0 10 -11 10 -24 0 -14 5 -28 10 -31 6
-3 10 -17 10 -31 0 -13 5 -24 10 -24 6 0 10 -9 10 -20 0 -11 4 -28 9 -38 11
-22 26 -59 41 -102 7 -19 21 -54 31 -77 11 -24 19 -46 19 -49 0 -7 26 -69 41
-96 5 -10 9 -27 9 -37 0 -11 5 -23 10 -26 6 -3 10 -17 10 -31 0 -13 4 -24 8
-24 4 0 14 -21 21 -47 8 -27 17 -52 20 -58 4 -5 13 -28 20 -50 7 -22 17 -51
23 -65 23 -54 28 -67 53 -135 25 -69 39 -104 56 -137 5 -10 9 -27 9 -38 0 -11
5 -20 10 -20 6 0 10 -9 10 -20 0 -20 4 -29 28 -77 7 -13 12 -30 12 -38 0 -8 5
-25 12 -38 24 -47 28 -57 28 -75 0 -10 4 -22 9 -28 5 -5 21 -44 36 -87 15 -43
32 -80 36 -83 5 -3 9 -16 9 -30 0 -13 5 -24 10 -24 6 0 10 -9 10 -20 0 -11 5
-30 12 -43 24 -47 28 -57 28 -72 0 -15 4 -25 28 -72 7 -13 12 -32 12 -43 0
-11 5 -20 10 -20 6 0 10 -10 10 -23 0 -13 4 -27 9 -33 5 -5 19 -38 31 -74 12
-36 28 -75 36 -87 8 -12 14 -31 14 -42 0 -11 5 -23 10 -26 6 -3 10 -17 10 -31
0 -13 4 -24 8 -24 5 0 15 -23 22 -51 8 -27 18 -52 22 -55 4 -3 8 -16 8 -30 0
-13 5 -24 10 -24 6 0 10 -11 10 -24 0 -14 5 -28 10 -31 6 -3 10 -17 10 -30 0
-13 4 -25 8 -27 4 -1 18 -32 31 -68 25 -69 47 -124 62 -152 5 -10 9 -27 9 -37
0 -11 5 -23 10 -26 6 -3 10 -17 10 -31 0 -13 5 -24 10 -24 6 0 10 -13 10 -30
0 -16 5 -30 10 -30 6 0 10 -11 10 -24 0 -14 5 -28 10 -31 6 -3 10 -15 10 -26
0 -10 4 -27 9 -37 5 -9 15 -37 21 -62 7 -25 16 -54 21 -65 4 -11 15 -49 24
-85 9 -36 20 -74 25 -85 5 -11 11 -38 15 -60 3 -22 10 -65 15 -95 6 -30 15
-109 20 -175 19 -230 -5 -389 -77 -518 -18 -33 -33 -62 -33 -66 0 -4 -9 -13
-20 -21 -11 -8 -20 -19 -20 -24 0 -15 -130 -136 -146 -136 -8 0 -14 -4 -14
-10 0 -5 -7 -10 -15 -10 -8 0 -15 -4 -15 -10 0 -5 -9 -10 -20 -10 -11 0 -20
-3 -20 -8 0 -8 -83 -47 -122 -57 -16 -4 -28 -11 -28 -15 0 -4 -15 -10 -32 -13
-18 -3 -53 -11 -78 -17 -116 -29 -269 -49 -442 -56 l-128 -6 0 -49 0 -49 549
0 c303 0 552 -4 555 -8 5 -9 -24 -75 -36 -80 -4 -2 -8 -12 -8 -23 0 -10 -4
-19 -10 -19 -5 0 -10 -9 -10 -20 0 -11 -4 -20 -10 -20 -5 0 -10 -9 -10 -20 0
-11 -3 -20 -7 -20 -5 0 -19 -25 -33 -55 -14 -30 -28 -55 -31 -55 -3 0 -14 -19
-24 -42 -11 -24 -27 -55 -37 -70 -10 -14 -18 -33 -18 -42 0 -9 -4 -16 -10 -16
-5 0 -10 -9 -10 -20 0 -11 -3 -20 -7 -20 -5 0 -19 -25 -33 -55 -14 -30 -28
-55 -32 -55 -5 0 -8 -9 -8 -20 0 -11 -4 -20 -10 -20 -5 0 -10 -9 -10 -19 0
-11 -4 -21 -8 -23 -5 -2 -31 -46 -58 -98 -27 -52 -51 -97 -54 -100 -3 -3 -16
-27 -30 -55 -14 -27 -28 -51 -32 -53 -5 -2 -8 -10 -8 -17 0 -13 -59 -128 -90
-175 -9 -14 -27 -47 -40 -75 -14 -27 -28 -51 -32 -53 -5 -2 -8 -12 -8 -23 0
-10 -4 -19 -10 -19 -5 0 -10 -9 -10 -19 0 -11 -3 -21 -7 -23 -5 -1 -28 -41
-52 -88 -24 -47 -55 -102 -68 -122 -12 -21 -23 -44 -23 -53 0 -8 -4 -15 -10
-15 -5 0 -10 -9 -10 -20 0 -11 -3 -20 -7 -20 -9 0 -33 -49 -33 -67 0 -7 -3
-13 -7 -13 -5 0 -19 -24 -33 -53 -14 -28 -28 -54 -31 -57 -3 -3 -23 -39 -45
-80 -21 -41 -42 -76 -46 -78 -5 -2 -8 -12 -8 -23 0 -10 -4 -19 -10 -19 -5 0
-10 -8 -10 -18 0 -10 -4 -22 -9 -28 -5 -5 -35 -58 -66 -119 -32 -60 -62 -111
-67 -113 -4 -2 -8 -12 -8 -23 0 -10 -4 -19 -10 -19 -5 0 -10 -9 -10 -19 0 -11
-3 -21 -8 -23 -4 -1 -23 -34 -42 -73 -19 -38 -38 -72 -42 -73 -5 -2 -8 -12 -8
-23 0 -10 -4 -19 -10 -19 -5 0 -10 -9 -10 -19 0 -11 -4 -21 -9 -23 -7 -3 -86
-147 -103 -190 -7 -17 117 -18 2927 -18 l2935 0 0 488 c0 268 -4 493 -8 499
-6 9 -12 7 -22 -7 -8 -11 -18 -20 -22 -20 -5 0 -32 -24 -62 -53 -29 -28 -88
-79 -131 -112 -42 -33 -88 -70 -101 -82 -13 -13 -27 -23 -32 -23 -4 0 -17 -8
-28 -18 -10 -10 -50 -40 -89 -66 -38 -27 -71 -53 -73 -58 -2 -4 -12 -8 -23 -8
-10 0 -19 -4 -19 -10 0 -5 -7 -10 -15 -10 -8 0 -15 -4 -15 -10 0 -5 -7 -10
-15 -10 -8 0 -15 -4 -15 -10 0 -5 -8 -10 -17 -10 -10 0 -29 -9 -43 -20 -14
-11 -31 -20 -37 -20 -7 0 -13 -4 -13 -10 0 -5 -9 -10 -20 -10 -11 0 -20 -4
-20 -9 0 -5 -10 -13 -22 -17 -13 -3 -52 -20 -88 -37 -36 -16 -75 -33 -87 -38
-47 -18 -78 -32 -95 -40 -10 -5 -29 -9 -43 -9 -14 0 -25 -4 -25 -10 0 -5 -13
-10 -29 -10 -17 0 -33 -4 -36 -10 -3 -5 -19 -10 -35 -10 -16 0 -32 -4 -35 -10
-3 -5 -18 -10 -33 -10 -15 0 -45 -7 -67 -14 -22 -8 -110 -26 -195 -42 -265
-46 -430 -59 -920 -73 -480 -13 -2167 -14 -2175 -1 -3 5 6 30 20 55 14 25 25
52 25 60 0 7 3 15 8 17 4 2 18 26 32 53 14 28 27 52 30 55 3 3 27 48 54 100
27 52 52 97 55 100 4 3 22 37 41 75 19 39 38 72 42 73 5 2 8 12 8 23 0 10 5
19 10 19 6 0 10 9 10 20 0 11 5 20 10 20 6 0 10 9 10 20 0 11 5 20 10 20 6 0
10 4 10 9 0 5 16 38 36 73 20 34 60 108 89 163 98 187 139 260 147 263 4 2 8
12 8 23 0 10 5 19 10 19 6 0 10 9 10 20 0 11 5 20 10 20 6 0 10 9 10 20 0 11
3 20 8 20 4 0 18 25 32 55 14 30 28 55 33 55 4 0 7 9 7 20 0 11 5 20 10 20 6
0 10 9 10 19 0 11 4 21 8 23 8 3 69 112 152 273 26 50 68 128 93 174 26 46 47
87 47 92 0 5 5 9 10 9 6 0 10 9 10 20 0 11 5 20 10 20 6 0 10 9 10 20 0 11 5
20 10 20 6 0 10 9 10 19 0 11 3 21 8 23 4 2 18 26 32 53 14 28 27 52 31 55 3
3 31 52 61 110 30 58 65 122 76 143 12 21 22 44 22 51 0 8 3 16 8 18 4 2 18
26 32 53 14 28 51 94 82 148 31 53 67 118 78 144 11 26 28 55 36 64 15 16 194
348 194 359 0 9 121 244 129 250 3 3 17 28 31 55 14 28 28 52 33 53 4 2 7 12
7 23 0 10 5 19 10 19 6 0 10 9 10 20 0 11 3 20 8 20 4 0 15 17 24 38 10 20 33
64 52 97 20 33 43 77 53 98 10 20 21 37 25 37 5 0 8 9 8 20 0 11 5 20 10 20 6
0 10 7 10 15 0 13 18 48 61 120 10 17 30 56 45 88 15 31 31 57 35 57 5 0 9 9
9 20 0 11 5 20 10 20 6 0 10 9 10 20 0 11 4 20 8 20 5 0 14 16 22 35 8 19 17
35 22 35 4 0 8 9 8 20 0 11 5 20 10 20 6 0 10 9 10 20 0 11 5 20 10 20 6 0 10
9 10 20 0 11 5 20 10 20 6 0 10 4 10 9 0 5 16 38 36 73 20 34 66 119 101 188
36 69 83 156 104 193 22 38 39 73 39 78 0 5 5 9 10 9 6 0 10 9 10 20 0 11 5
20 10 20 6 0 10 9 10 20 0 11 3 20 8 20 4 0 18 25 32 55 14 30 28 55 33 55 4
0 7 9 7 20 0 11 5 20 10 20 6 0 10 9 10 19 0 11 4 21 8 23 8 3 64 103 146 263
22 44 43 82 46 85 3 3 16 28 30 55 58 113 95 180 103 183 4 2 7 12 7 23 0 10
5 19 10 19 6 0 10 9 10 19 0 11 3 21 8 23 4 2 18 26 32 53 14 28 27 52 31 55
3 3 23 39 45 80 21 41 42 77 46 78 5 2 8 10 8 18 0 7 11 33 25 56 14 24 28 51
32 61 3 9 9 17 14 17 5 0 9 9 9 20 0 11 5 20 10 20 6 0 10 9 10 19 0 11 4 22
10 26 5 3 21 33 36 65 15 33 29 60 33 60 3 0 17 25 31 55 14 30 28 55 33 55 4
0 7 9 7 20 0 11 5 20 10 20 6 0 10 9 10 19 0 11 3 21 8 23 4 2 18 26 31 53 14
28 30 57 37 65 6 8 31 53 55 100 24 47 47 87 52 88 4 2 7 12 7 23 0 10 5 19
10 19 6 0 10 9 10 19 0 11 3 21 8 23 4 2 18 26 32 53 14 28 27 52 31 55 3 3
18 30 33 60 33 68 65 127 89 163 9 14 17 33 17 42 0 8 5 15 10 15 6 0 10 9 10
20 0 11 5 20 10 20 6 0 10 9 10 20 0 11 5 20 10 20 6 0 10 4 10 9 0 13 112
216 122 219 4 2 8 12 8 23 0 10 5 19 10 19 6 0 10 7 10 15 0 14 18 53 30 65 8
8 47 79 76 140 15 30 30 57 35 58 5 2 9 12 9 22 0 10 3 20 8 22 4 2 23 35 42
73 19 39 37 72 40 75 12 11 30 51 30 65 0 8 4 15 8 15 5 0 21 27 37 60 16 33
32 60 37 60 4 0 8 9 8 20 0 11 3 20 8 20 4 0 18 25 32 55 14 30 28 55 32 55 5
0 8 4 8 10 0 7 -886 11 -2622 12 l-2623 3 -22 40 c-12 22 -22 50 -22 63 -1 12
-5 22 -11 22 -5 0 -10 9 -10 20 0 11 -4 29 -10 40 -5 11 -14 29 -20 40 -5 11
-10 29 -10 40 0 11 -4 20 -10 20 -5 0 -10 11 -10 24 0 14 -4 28 -10 31 -5 3
-10 17 -10 31 0 13 -4 24 -10 24 -5 0 -10 9 -10 20 0 11 -4 28 -9 38 -14 26
-37 82 -52 127 -8 22 -16 42 -19 45 -3 3 -11 23 -18 45 -14 43 -29 79 -43 107
-5 10 -9 27 -9 37 0 11 -4 23 -10 26 -5 3 -10 17 -10 31 0 13 -4 24 -8 24 -4
0 -14 21 -21 48 -8 26 -18 54 -22 62 -4 8 -20 47 -34 85 -14 39 -31 81 -37 95
-14 32 -23 57 -38 100 -15 42 -29 79 -41 102 -5 10 -9 27 -9 38 0 11 -4 20
-10 20 -5 0 -10 11 -10 24 0 14 -4 28 -10 31 -5 3 -10 15 -10 26 0 10 -4 27
-9 37 -15 29 -29 64 -66 162 -39 103 -53 136 -66 162 -5 10 -9 27 -9 38 0 11
-4 20 -10 20 -5 0 -10 11 -10 24 0 14 -4 28 -10 31 -5 3 -10 17 -10 31 0 13
-4 24 -10 24 -5 0 -10 9 -10 20 0 11 -4 28 -9 38 -6 9 -22 49 -36 87 -14 39
-33 86 -41 105 -9 19 -22 55 -30 80 -15 46 -29 81 -45 112 -5 10 -9 27 -9 38
0 11 -4 20 -10 20 -5 0 -10 9 -10 20 0 11 -5 30 -12 43 -24 48 -28 57 -28 76
0 11 -4 22 -9 25 -5 3 -21 44 -37 91 -15 47 -32 85 -36 85 -4 0 -8 9 -8 20 0
20 -4 29 -28 77 -7 13 -12 30 -12 38 0 15 -4 25 -28 72 -7 13 -12 32 -12 43 0
11 -4 20 -8 20 -5 0 -15 23 -22 51 -8 27 -18 52 -22 55 -4 3 -8 15 -8 27 0 12
-7 31 -15 41 -8 11 -15 26 -15 33 0 12 -30 85 -51 125 -5 10 -9 27 -9 37 0 11
-4 23 -10 26 -5 3 -10 15 -10 26 0 10 -4 19 -10 19 -5 0 -10 14 -10 30 0 17
-4 30 -10 30 -5 0 -10 9 -10 20 0 11 -4 28 -9 38 -11 23 -26 59 -41 102 -7 19
-18 49 -25 65 -6 17 -18 46 -25 65 -7 19 -16 40 -20 45 -3 6 -12 30 -20 55 -7
25 -17 49 -22 55 -4 5 -8 19 -8 31 0 26 -17 34 -74 34 -42 0 -42 0 -61 -52z
m-305 -1148 c0 -11 5 -20 10 -20 6 0 10 -9 10 -20 0 -11 4 -28 9 -38 15 -30
29 -64 66 -162 20 -52 40 -103 45 -112 6 -10 10 -27 10 -37 0 -11 5 -23 10
-26 6 -3 10 -15 10 -26 0 -10 5 -19 10 -19 6 0 10 -13 10 -30 0 -16 5 -30 10
-30 6 0 10 -9 10 -20 0 -11 4 -28 9 -38 5 -9 13 -28 19 -42 5 -14 15 -38 22
-55 7 -16 23 -61 37 -100 14 -38 28 -74 32 -80 4 -5 14 -30 21 -55 7 -25 17
-49 20 -55 4 -5 13 -31 21 -57 7 -27 17 -48 21 -48 4 0 8 -13 8 -30 0 -16 5
-30 10 -30 6 0 10 -9 10 -19 0 -11 5 -23 10 -26 6 -3 10 -15 10 -26 0 -10 4
-27 9 -37 6 -9 22 -48 36 -87 15 -38 31 -74 36 -80 5 -5 9 -19 9 -31 0 -13 4
-25 8 -28 4 -3 14 -28 22 -55 7 -28 17 -51 22 -51 4 0 8 -11 8 -24 0 -14 5
-28 10 -31 6 -3 10 -17 10 -31 0 -13 4 -24 8 -24 5 0 15 -23 22 -51 8 -27 18
-52 22 -55 4 -3 8 -16 8 -29 0 -13 4 -26 9 -30 5 -3 15 -22 21 -43 13 -40 36
-97 51 -124 5 -10 9 -27 9 -37 0 -11 5 -23 10 -26 6 -3 10 -15 10 -26 0 -10 5
-19 10 -19 6 0 10 -13 10 -30 0 -16 5 -30 10 -30 6 0 10 -9 10 -20 0 -11 4
-28 9 -38 12 -23 26 -60 41 -102 7 -19 16 -44 21 -55 4 -11 24 -63 44 -115 20
-52 40 -103 45 -112 6 -10 10 -27 10 -38 0 -11 5 -20 10 -20 6 0 10 -11 10
-25 0 -14 5 -25 10 -25 6 0 10 -13 10 -30 0 -16 4 -30 8 -30 4 0 14 -21 21
-47 8 -27 18 -55 22 -63 5 -8 24 -58 44 -110 20 -52 40 -104 45 -115 5 -11 14
-38 21 -60 6 -22 15 -48 20 -57 5 -10 9 -31 9 -47 0 -17 5 -33 10 -36 6 -3 10
-19 10 -35 0 -16 5 -32 10 -35 6 -3 10 -32 10 -64 0 -31 4 -61 9 -66 5 -6 12
-30 15 -55 4 -25 11 -74 16 -110 11 -86 29 -178 40 -215 52 -168 85 -1148 53
-1575 -12 -169 -56 -512 -74 -581 -6 -24 -15 -66 -19 -94 -8 -47 -14 -74 -41
-192 -6 -27 -13 -65 -16 -86 -3 -20 -9 -40 -14 -43 -5 -3 -9 -18 -9 -35 0 -16
-4 -37 -9 -47 -14 -28 -31 -87 -31 -108 0 -11 -4 -24 -9 -30 -4 -5 -20 -49
-35 -99 -15 -49 -32 -94 -37 -99 -5 -6 -9 -20 -9 -32 0 -13 -4 -26 -10 -29 -5
-3 -10 -17 -10 -31 0 -13 -4 -24 -10 -24 -5 0 -10 -11 -10 -24 0 -14 -4 -28
-10 -31 -5 -3 -10 -15 -10 -26 0 -10 -4 -19 -10 -19 -5 0 -10 -9 -10 -20 0
-11 -4 -28 -10 -38 -5 -9 -44 -89 -86 -177 -43 -88 -81 -161 -86 -163 -4 -2
-8 -12 -8 -23 0 -10 -4 -19 -10 -19 -5 0 -10 -9 -10 -20 0 -11 -4 -20 -10 -20
-5 0 -10 -7 -10 -15 0 -8 -4 -15 -10 -15 -5 0 -10 -9 -10 -20 0 -11 -4 -20
-10 -20 -5 0 -10 -5 -10 -11 0 -10 -13 -29 -60 -86 -6 -7 -10 -15 -10 -18 0
-9 -80 -126 -102 -149 -10 -11 -18 -23 -18 -28 0 -4 -14 -23 -31 -41 -17 -17
-43 -48 -58 -67 -14 -19 -52 -61 -83 -92 -32 -31 -58 -62 -58 -67 0 -6 -3 -11
-7 -11 -5 0 -35 -26 -68 -58 -34 -32 -76 -69 -95 -82 -19 -13 -37 -27 -40 -30
-13 -16 -131 -100 -140 -100 -6 0 -10 -4 -10 -9 0 -5 -13 -14 -30 -21 -16 -7
-30 -16 -30 -21 0 -5 -9 -9 -20 -9 -11 0 -20 -4 -20 -8 0 -5 -16 -14 -35 -22
-19 -8 -35 -17 -35 -22 0 -4 -6 -8 -13 -8 -8 0 -41 -13 -75 -30 -34 -17 -65
-30 -68 -30 -3 0 -22 -7 -42 -16 -76 -33 -141 -54 -168 -54 -11 0 -24 -4 -29
-9 -6 -5 -28 -11 -50 -15 -22 -3 -71 -11 -110 -17 -43 -8 -162 -12 -310 -12
-250 1 -363 8 -380 24 -5 5 -20 9 -34 9 -22 0 -60 10 -116 30 -11 4 -38 13
-60 20 -59 18 -155 62 -155 72 0 4 -6 8 -14 8 -19 0 -96 42 -96 52 0 4 -9 8
-19 8 -11 0 -21 4 -23 8 -1 4 -19 19 -38 32 -93 64 -194 158 -275 255 -28 33
-52 62 -55 65 -3 3 -11 17 -19 33 -8 15 -18 27 -23 27 -4 0 -8 9 -8 20 0 11
-4 20 -9 20 -5 0 -39 62 -76 138 -37 75 -72 145 -76 154 -5 10 -9 29 -9 42 0
14 -4 28 -10 31 -5 3 -10 17 -10 30 0 13 -4 27 -10 30 -5 3 -10 21 -10 40 0
19 -4 37 -10 40 -5 3 -10 26 -10 50 0 24 -4 46 -9 49 -15 10 -24 155 -25 391
0 213 6 294 34 450 6 33 13 78 16 100 4 22 10 44 15 49 5 6 9 19 9 30 0 21 17
80 31 108 5 10 9 28 9 41 0 13 4 27 8 32 4 6 18 37 31 70 12 33 28 74 36 90 7
17 19 45 27 63 7 17 16 32 20 32 5 0 8 9 8 20 0 11 5 20 10 20 6 0 10 9 10 20
0 11 5 20 10 20 6 0 10 9 10 20 0 11 5 20 10 20 6 0 10 9 10 20 0 11 5 20 10
20 6 0 10 5 10 10 0 6 8 23 18 38 11 15 32 47 48 72 16 25 32 46 37 48 4 2 7
10 7 18 0 8 5 14 10 14 6 0 10 7 10 15 0 8 5 15 10 15 6 0 10 7 10 15 0 8 4
15 8 15 4 0 15 12 24 28 9 15 25 37 35 48 10 12 31 37 46 55 139 169 421 450
542 541 17 12 37 29 45 38 8 9 31 27 50 40 19 12 40 28 45 34 6 6 30 27 55 46
25 19 52 41 60 50 8 8 27 21 43 29 15 8 27 18 27 23 0 4 6 8 14 8 8 0 16 3 18
8 4 8 70 59 113 86 16 11 38 28 49 38 11 10 25 18 31 18 6 0 17 9 25 20 8 11
19 20 25 20 6 0 20 8 31 18 11 9 32 24 46 32 29 17 67 44 108 78 15 12 33 22
39 22 6 0 11 4 11 8 0 5 12 15 28 23 15 8 34 21 42 29 8 8 29 22 45 30 17 8
39 23 49 33 11 9 24 17 28 17 5 0 19 9 31 20 47 44 82 70 95 70 6 0 12 5 12
10 0 6 7 10 15 10 8 0 15 4 15 8 0 5 12 15 28 23 15 8 34 22 43 31 9 10 21 18
26 18 5 0 18 8 29 18 10 10 37 31 59 47 22 17 42 32 45 35 3 3 21 17 40 30 19
13 42 31 50 40 8 8 33 29 55 45 22 16 68 57 102 90 34 33 88 85 120 116 65 61
97 97 133 149 13 19 32 44 42 54 10 11 18 24 18 28 0 5 8 18 19 29 23 25 91
161 91 183 0 9 5 16 10 16 6 0 10 15 10 34 0 19 4 37 9 40 31 19 31 386 0 386
-5 0 -9 11 -9 25 0 14 -4 25 -9 25 -5 0 -13 9 -16 20 -10 32 -85 100 -110 100
-8 0 -15 4 -15 10 0 33 -221 38 -290 7 -19 -9 -50 -22 -67 -29 -18 -7 -33 -16
-33 -20 0 -5 -7 -8 -15 -8 -8 0 -15 -4 -15 -10 0 -5 -7 -10 -16 -10 -9 0 -29
-13 -44 -30 -15 -16 -32 -30 -37 -30 -5 0 -15 -8 -24 -17 -8 -10 -31 -32 -50
-49 -35 -31 -75 -75 -164 -179 -27 -32 -58 -67 -67 -77 -10 -10 -18 -21 -18
-24 0 -3 -13 -18 -28 -32 -15 -15 -39 -43 -52 -62 -13 -19 -29 -40 -35 -46 -5
-7 -32 -37 -60 -68 -121 -138 -208 -219 -273 -256 -15 -8 -33 -21 -40 -28 -8
-7 -27 -16 -43 -19 -16 -3 -29 -9 -29 -13 0 -11 -74 -23 -133 -22 -65 1 -111
32 -142 93 -29 56 -31 102 -9 191 21 88 55 191 65 202 5 6 9 18 9 28 0 18 4
28 28 75 7 13 12 32 12 43 0 11 5 20 10 20 6 0 10 11 10 24 0 14 5 28 10 31 6
3 10 17 10 31 0 13 5 24 10 24 6 0 10 11 10 24 0 14 5 28 10 31 6 3 10 16 10
29 0 12 4 26 9 32 4 5 21 43 36 84 15 41 32 79 36 84 5 6 9 20 9 32 0 13 5 26
10 29 6 3 10 17 10 31 0 13 5 24 10 24 6 0 10 9 10 19 0 11 5 23 10 26 6 3 10
17 10 30 0 13 5 27 10 30 6 3 10 15 10 26 0 19 4 28 28 76 7 13 12 32 12 43 0
11 4 20 8 20 4 0 21 38 36 85 16 47 32 88 37 91 5 3 9 16 9 30 0 13 5 24 10
24 6 0 10 7 10 15 0 24 24 95 32 95 5 0 8 9 8 20 0 11 5 29 10 40 6 11 15 29
20 40 6 11 10 28 10 38 0 10 4 22 8 27 5 6 15 30 22 55 8 25 17 50 21 55 3 6
10 21 14 35 4 14 15 43 25 65 10 22 23 56 30 75 15 43 30 80 41 102 5 10 9 27
9 38 0 11 5 20 10 20 6 0 10 14 10 30 0 17 4 30 8 30 5 0 15 23 22 51 8 27 18
52 22 55 4 3 8 16 8 29 0 13 4 26 9 30 5 3 15 22 21 43 13 40 36 97 51 124 5
10 9 27 9 37 0 11 5 23 10 26 6 3 10 15 10 26 0 10 5 19 10 19 6 0 10 14 10
30 0 17 5 30 10 30 6 0 10 11 10 24 0 14 5 28 10 31 6 3 10 17 10 31 0 13 5
24 10 24 6 0 10 9 10 20 0 11 4 28 9 38 17 34 31 68 57 142 14 41 30 79 35 85
5 5 9 17 9 27 0 10 5 27 10 38 22 44 27 57 41 103 14 48 29 63 29 27z m6043
-3086 c3 -4 -5 -27 -20 -53 -14 -25 -59 -111 -101 -191 -41 -80 -82 -156 -92
-170 -9 -14 -23 -40 -31 -57 -8 -18 -17 -33 -21 -33 -5 0 -8 -9 -8 -20 0 -11
-4 -20 -10 -20 -5 0 -10 -9 -10 -20 0 -11 -4 -20 -10 -20 -5 0 -10 -9 -10 -19
0 -11 -3 -21 -7 -23 -7 -3 -35 -53 -105 -188 -13 -25 -25 -47 -28 -50 -12 -12
-30 -51 -30 -65 0 -8 -4 -15 -10 -15 -5 0 -10 -9 -10 -20 0 -11 -3 -20 -7 -20
-5 0 -19 -24 -33 -53 -14 -28 -28 -54 -31 -57 -6 -5 -49 -86 -206 -390 -36
-69 -69 -126 -74 -128 -5 -2 -9 -12 -9 -23 0 -10 -4 -19 -10 -19 -5 0 -10 -9
-10 -20 0 -11 -3 -20 -7 -20 -5 0 -19 -25 -33 -55 -14 -30 -28 -55 -32 -55 -5
0 -8 -9 -8 -20 0 -11 -4 -20 -10 -20 -5 0 -10 -9 -10 -20 0 -11 -4 -20 -10
-20 -5 0 -10 -9 -10 -19 0 -11 -4 -21 -8 -23 -5 -1 -30 -43 -56 -93 -27 -49
-52 -94 -57 -99 -5 -6 -9 -18 -9 -28 0 -10 -4 -18 -10 -18 -5 0 -10 -9 -10
-19 0 -11 -3 -21 -7 -23 -5 -2 -19 -25 -33 -53 -14 -27 -43 -81 -66 -120 -22
-38 -47 -85 -55 -102 -7 -18 -17 -33 -21 -33 -5 0 -8 -9 -8 -20 0 -11 -4 -20
-10 -20 -5 0 -10 -9 -10 -20 0 -11 -4 -20 -10 -20 -5 0 -10 -6 -10 -13 0 -13
-101 -203 -119 -224 -6 -7 -11 -19 -11 -28 0 -8 -4 -15 -10 -15 -5 0 -10 -9
-10 -20 0 -11 -4 -20 -10 -20 -5 0 -10 -9 -10 -19 0 -11 -3 -21 -8 -23 -4 -1
-23 -34 -42 -73 -19 -38 -37 -72 -41 -75 -3 -3 -37 -66 -75 -140 -38 -74 -71
-137 -74 -140 -3 -3 -32 -58 -65 -122 -33 -65 -63 -118 -67 -118 -5 0 -8 -9
-8 -20 0 -11 -4 -20 -8 -20 -4 0 -14 -16 -21 -35 -7 -19 -17 -35 -22 -35 -5 0
-9 -9 -9 -20 0 -11 -4 -20 -10 -20 -5 0 -10 -9 -10 -20 0 -11 -4 -20 -10 -20
-5 0 -10 -7 -10 -15 0 -14 -18 -53 -30 -65 -5 -5 -44 -77 -94 -175 -17 -33
-34 -61 -38 -63 -5 -2 -8 -12 -8 -23 0 -10 -4 -19 -10 -19 -5 0 -10 -9 -10
-19 0 -11 -4 -21 -8 -23 -4 -2 -20 -28 -35 -58 -31 -63 -50 -90 -63 -90 -11 1
-44 70 -44 93 0 9 -4 17 -10 17 -5 0 -10 9 -10 20 0 11 -4 29 -10 40 -5 11
-14 29 -20 40 -5 11 -10 27 -10 35 0 15 -4 25 -28 72 -7 13 -12 32 -12 43 0
11 -4 20 -10 20 -5 0 -10 11 -10 24 0 14 -4 27 -8 30 -4 2 -21 43 -37 90 -16
47 -33 86 -37 86 -4 0 -8 9 -8 20 0 20 -4 29 -28 77 -7 13 -12 30 -12 38 0 8
-4 24 -10 35 -5 11 -14 29 -20 40 -5 11 -10 29 -10 40 0 11 -4 20 -10 20 -5 0
-10 11 -10 24 0 14 -4 28 -10 31 -5 3 -10 17 -10 31 0 13 -4 24 -8 24 -4 0
-21 39 -37 86 -16 47 -33 88 -37 90 -4 3 -8 16 -8 30 0 13 -4 24 -10 24 -5 0
-10 9 -10 20 0 20 -4 29 -28 77 -7 13 -12 30 -12 38 0 8 -4 23 -9 33 -5 9 -14
31 -21 47 -7 17 -16 38 -21 47 -5 10 -9 27 -9 37 0 11 -4 23 -10 26 -5 3 -10
17 -10 31 0 13 -4 24 -9 24 -5 0 -12 12 -16 27 -3 15 -15 45 -26 67 -10 22
-19 46 -19 53 0 7 -4 21 -9 31 -5 9 -14 31 -21 47 -7 17 -16 38 -21 47 -5 10
-9 27 -9 37 0 11 -4 23 -10 26 -5 3 -10 17 -10 31 0 13 -4 24 -10 24 -5 0 -10
9 -10 20 0 11 -4 28 -9 38 -22 43 -81 197 -81 211 0 6 -4 11 -10 11 -5 0 -10
10 -10 23 0 13 -4 27 -8 33 -5 5 -15 29 -22 54 -8 25 -16 50 -20 55 -3 6 -12
28 -19 50 -12 39 -18 54 -39 105 -5 14 -15 41 -22 60 -7 19 -16 44 -21 55 -5
11 -20 52 -34 90 -14 39 -31 81 -37 95 -6 14 -15 36 -21 50 -5 14 -13 33 -18
42 -5 10 -9 25 -9 33 0 8 -4 24 -10 35 -5 11 -14 29 -20 40 -5 11 -10 29 -10
40 0 11 -4 20 -10 20 -5 0 -10 11 -10 24 0 14 -4 28 -10 31 -5 3 -10 14 -10
24 0 9 -11 41 -25 69 -14 29 -25 56 -25 62 0 10 -32 87 -51 122 -5 10 -9 25
-9 33 0 8 -4 24 -10 35 -5 11 -14 29 -20 40 -5 11 -10 29 -10 40 0 11 -4 20
-10 20 -5 0 -10 11 -10 24 0 14 -4 28 -10 31 -5 3 -10 17 -10 31 0 13 -4 24
-10 24 -5 0 -10 11 -10 24 0 14 -4 27 -9 31 -5 3 -19 36 -32 73 -12 37 -27 76
-33 87 -14 26 -36 87 -36 101 0 11 114 64 138 64 6 0 12 5 12 10 0 6 11 10 24
10 14 0 28 5 31 10 3 6 17 10 30 10 13 0 27 5 30 10 3 6 17 10 30 10 13 0 27
5 30 10 3 6 22 10 41 10 19 0 34 5 34 10 0 6 18 10 39 10 22 0 42 4 45 9 3 4
25 11 48 15 24 3 68 10 98 16 185 34 379 56 604 69 99 6 182 13 184 16 8 7
2458 6 2465 -1z"/>
</g>
</svg>
